<svg width="919" height="363" viewBox="0 0 919 363" fill="none" xmlns="http://www.w3.org/2000/svg">
<rect width="918.917" height="362.856" fill="white"/>
<path d="M227.928 127.68C225.688 127.68 223.976 128.384 222.792 129.792C221.608 131.2 221.016 133.136 221.016 135.6C221.016 137.36 221.112 139.056 221.304 140.688C221.496 142.288 221.688 143.856 221.88 145.392C222.104 146.896 222.312 148.384 222.504 149.856C222.696 151.328 222.792 152.816 222.792 154.32C222.792 155.504 222.616 156.64 222.264 157.728C221.944 158.816 221.464 159.808 220.824 160.704C220.184 161.6 219.4 162.384 218.472 163.056C217.576 163.728 216.552 164.224 215.4 164.544C216.552 164.896 217.576 165.408 218.472 166.08C219.4 166.72 220.184 167.488 220.824 168.384C221.464 169.28 221.944 170.272 222.264 171.36C222.616 172.448 222.792 173.584 222.792 174.768C222.792 176.272 222.696 177.76 222.504 179.232C222.312 180.704 222.104 182.208 221.88 183.744C221.688 185.248 221.496 186.816 221.304 188.448C221.112 190.048 221.016 191.728 221.016 193.488C221.016 195.92 221.608 197.84 222.792 199.248C223.976 200.656 225.688 201.36 227.928 201.36H228.36C228.584 201.36 228.84 201.408 229.128 201.504C229.416 201.6 229.688 201.744 229.944 201.936C230.232 202.128 230.456 202.384 230.616 202.704C230.808 203.024 230.904 203.392 230.904 203.808V209.04H228.36C225.352 209.04 222.728 208.64 220.488 207.84C218.28 207.072 216.44 205.968 214.968 204.528C213.528 203.12 212.456 201.408 211.752 199.392C211.048 197.408 210.696 195.2 210.696 192.768C210.696 191.2 210.792 189.664 210.984 188.16C211.208 186.624 211.448 185.104 211.704 183.6C211.992 182.096 212.232 180.592 212.424 179.088C212.648 177.584 212.76 176.08 212.76 174.576C212.76 172.624 212.296 171.04 211.368 169.824C210.472 168.576 209.016 167.952 207 167.952V161.088C209.016 161.088 210.472 160.48 211.368 159.264C212.296 158.016 212.76 156.416 212.76 154.464C212.76 152.96 212.648 151.472 212.424 150C212.232 148.496 211.992 146.992 211.704 145.488C211.448 143.984 211.208 142.48 210.984 140.976C210.792 139.44 210.696 137.888 210.696 136.32C210.696 133.888 211.048 131.68 211.752 129.696C212.456 127.68 213.528 125.952 214.968 124.512C216.44 123.072 218.28 121.968 220.488 121.2C222.728 120.4 225.352 120 228.36 120H230.904V125.28C230.904 125.696 230.808 126.064 230.616 126.384C230.456 126.672 230.232 126.912 229.944 127.104C229.688 127.296 229.416 127.44 229.128 127.536C228.84 127.632 228.584 127.68 228.36 127.68H227.928Z" fill="#007ACC"/>
<path d="M227.928 127.68C225.688 127.68 223.976 128.384 222.792 129.792C221.608 131.2 221.016 133.136 221.016 135.6C221.016 137.36 221.112 139.056 221.304 140.688C221.496 142.288 221.688 143.856 221.88 145.392C222.104 146.896 222.312 148.384 222.504 149.856C222.696 151.328 222.792 152.816 222.792 154.32C222.792 155.504 222.616 156.64 222.264 157.728C221.944 158.816 221.464 159.808 220.824 160.704C220.184 161.6 219.4 162.384 218.472 163.056C217.576 163.728 216.552 164.224 215.4 164.544C216.552 164.896 217.576 165.408 218.472 166.08C219.4 166.72 220.184 167.488 220.824 168.384C221.464 169.28 221.944 170.272 222.264 171.36C222.616 172.448 222.792 173.584 222.792 174.768C222.792 176.272 222.696 177.76 222.504 179.232C222.312 180.704 222.104 182.208 221.88 183.744C221.688 185.248 221.496 186.816 221.304 188.448C221.112 190.048 221.016 191.728 221.016 193.488C221.016 195.92 221.608 197.84 222.792 199.248C223.976 200.656 225.688 201.36 227.928 201.36H228.36C228.584 201.36 228.84 201.408 229.128 201.504C229.416 201.6 229.688 201.744 229.944 201.936C230.232 202.128 230.456 202.384 230.616 202.704C230.808 203.024 230.904 203.392 230.904 203.808V209.04H228.36C225.352 209.04 222.728 208.64 220.488 207.84C218.28 207.072 216.44 205.968 214.968 204.528C213.528 203.12 212.456 201.408 211.752 199.392C211.048 197.408 210.696 195.2 210.696 192.768C210.696 191.2 210.792 189.664 210.984 188.16C211.208 186.624 211.448 185.104 211.704 183.6C211.992 182.096 212.232 180.592 212.424 179.088C212.648 177.584 212.76 176.08 212.76 174.576C212.76 172.624 212.296 171.04 211.368 169.824C210.472 168.576 209.016 167.952 207 167.952V161.088C209.016 161.088 210.472 160.48 211.368 159.264C212.296 158.016 212.76 156.416 212.76 154.464C212.76 152.96 212.648 151.472 212.424 150C212.232 148.496 211.992 146.992 211.704 145.488C211.448 143.984 211.208 142.48 210.984 140.976C210.792 139.44 210.696 137.888 210.696 136.32C210.696 133.888 211.048 131.68 211.752 129.696C212.456 127.68 213.528 125.952 214.968 124.512C216.44 123.072 218.28 121.968 220.488 121.2C222.728 120.4 225.352 120 228.36 120H230.904V125.28C230.904 125.696 230.808 126.064 230.616 126.384C230.456 126.672 230.232 126.912 229.944 127.104C229.688 127.296 229.416 127.44 229.128 127.536C228.84 127.632 228.584 127.68 228.36 127.68H227.928Z" fill="url(#paint0_linear)" fill-opacity="0.5"/>
<path d="M227.928 127.68C225.688 127.68 223.976 128.384 222.792 129.792C221.608 131.2 221.016 133.136 221.016 135.6C221.016 137.36 221.112 139.056 221.304 140.688C221.496 142.288 221.688 143.856 221.88 145.392C222.104 146.896 222.312 148.384 222.504 149.856C222.696 151.328 222.792 152.816 222.792 154.32C222.792 155.504 222.616 156.64 222.264 157.728C221.944 158.816 221.464 159.808 220.824 160.704C220.184 161.6 219.4 162.384 218.472 163.056C217.576 163.728 216.552 164.224 215.4 164.544C216.552 164.896 217.576 165.408 218.472 166.08C219.4 166.72 220.184 167.488 220.824 168.384C221.464 169.28 221.944 170.272 222.264 171.36C222.616 172.448 222.792 173.584 222.792 174.768C222.792 176.272 222.696 177.76 222.504 179.232C222.312 180.704 222.104 182.208 221.88 183.744C221.688 185.248 221.496 186.816 221.304 188.448C221.112 190.048 221.016 191.728 221.016 193.488C221.016 195.92 221.608 197.84 222.792 199.248C223.976 200.656 225.688 201.36 227.928 201.36H228.36C228.584 201.36 228.84 201.408 229.128 201.504C229.416 201.6 229.688 201.744 229.944 201.936C230.232 202.128 230.456 202.384 230.616 202.704C230.808 203.024 230.904 203.392 230.904 203.808V209.04H228.36C225.352 209.04 222.728 208.64 220.488 207.84C218.28 207.072 216.44 205.968 214.968 204.528C213.528 203.12 212.456 201.408 211.752 199.392C211.048 197.408 210.696 195.2 210.696 192.768C210.696 191.2 210.792 189.664 210.984 188.16C211.208 186.624 211.448 185.104 211.704 183.6C211.992 182.096 212.232 180.592 212.424 179.088C212.648 177.584 212.76 176.08 212.76 174.576C212.76 172.624 212.296 171.04 211.368 169.824C210.472 168.576 209.016 167.952 207 167.952V161.088C209.016 161.088 210.472 160.48 211.368 159.264C212.296 158.016 212.76 156.416 212.76 154.464C212.76 152.96 212.648 151.472 212.424 150C212.232 148.496 211.992 146.992 211.704 145.488C211.448 143.984 211.208 142.48 210.984 140.976C210.792 139.44 210.696 137.888 210.696 136.32C210.696 133.888 211.048 131.68 211.752 129.696C212.456 127.68 213.528 125.952 214.968 124.512C216.44 123.072 218.28 121.968 220.488 121.2C222.728 120.4 225.352 120 228.36 120H230.904V125.28C230.904 125.696 230.808 126.064 230.616 126.384C230.456 126.672 230.232 126.912 229.944 127.104C229.688 127.296 229.416 127.44 229.128 127.536C228.84 127.632 228.584 127.68 228.36 127.68H227.928Z" fill="url(#paint1_linear)" fill-opacity="0.5"/>
<path d="M299.416 139.456H278.488V198.256H265.576V139.456H244.648V128.848H299.416V139.456Z" fill="#007ACC"/>
<path d="M299.416 139.456H278.488V198.256H265.576V139.456H244.648V128.848H299.416V139.456Z" fill="url(#paint2_linear)" fill-opacity="0.5"/>
<path d="M299.416 139.456H278.488V198.256H265.576V139.456H244.648V128.848H299.416V139.456Z" fill="url(#paint3_linear)" fill-opacity="0.5"/>
<path d="M345.271 141.472C344.887 142.144 344.471 142.64 344.023 142.96C343.607 143.248 343.079 143.392 342.439 143.392C341.767 143.392 341.031 143.152 340.231 142.672C339.463 142.16 338.535 141.6 337.447 140.992C336.359 140.384 335.079 139.84 333.607 139.36C332.167 138.848 330.455 138.592 328.471 138.592C326.679 138.592 325.111 138.816 323.767 139.264C322.423 139.68 321.287 140.272 320.359 141.04C319.463 141.808 318.791 142.736 318.343 143.824C317.895 144.88 317.671 146.048 317.671 147.328C317.671 148.96 318.119 150.32 319.015 151.408C319.943 152.496 321.159 153.424 322.663 154.192C324.167 154.96 325.879 155.648 327.799 156.256C329.719 156.864 331.687 157.52 333.703 158.224C335.719 158.896 337.687 159.696 339.607 160.624C341.527 161.52 343.239 162.672 344.743 164.08C346.247 165.456 347.447 167.152 348.343 169.168C349.271 171.184 349.735 173.632 349.735 176.512C349.735 179.648 349.191 182.592 348.103 185.344C347.047 188.064 345.479 190.448 343.399 192.496C341.351 194.512 338.839 196.112 335.863 197.296C332.887 198.448 329.479 199.024 325.639 199.024C323.431 199.024 321.255 198.8 319.111 198.352C316.967 197.936 314.903 197.328 312.919 196.528C310.967 195.728 309.127 194.768 307.399 193.648C305.671 192.528 304.135 191.28 302.791 189.904L306.583 183.712C306.903 183.264 307.319 182.896 307.831 182.608C308.343 182.288 308.887 182.128 309.463 182.128C310.263 182.128 311.127 182.464 312.055 183.136C312.983 183.776 314.087 184.496 315.367 185.296C316.647 186.096 318.135 186.832 319.831 187.504C321.559 188.144 323.623 188.464 326.023 188.464C329.703 188.464 332.551 187.6 334.567 185.872C336.583 184.112 337.591 181.6 337.591 178.336C337.591 176.512 337.127 175.024 336.199 173.872C335.303 172.72 334.103 171.76 332.599 170.992C331.095 170.192 329.383 169.52 327.463 168.976C325.543 168.432 323.591 167.84 321.607 167.2C319.623 166.56 317.671 165.792 315.751 164.896C313.831 164 312.119 162.832 310.615 161.392C309.111 159.952 307.895 158.16 306.967 156.016C306.071 153.84 305.623 151.168 305.623 148C305.623 145.472 306.119 143.008 307.111 140.608C308.135 138.208 309.607 136.08 311.527 134.224C313.447 132.368 315.815 130.88 318.631 129.76C321.447 128.64 324.679 128.08 328.327 128.08C332.423 128.08 336.199 128.72 339.655 130C343.111 131.28 346.055 133.072 348.487 135.376L345.271 141.472Z" fill="#007ACC"/>
<path d="M345.271 141.472C344.887 142.144 344.471 142.64 344.023 142.96C343.607 143.248 343.079 143.392 342.439 143.392C341.767 143.392 341.031 143.152 340.231 142.672C339.463 142.16 338.535 141.6 337.447 140.992C336.359 140.384 335.079 139.84 333.607 139.36C332.167 138.848 330.455 138.592 328.471 138.592C326.679 138.592 325.111 138.816 323.767 139.264C322.423 139.68 321.287 140.272 320.359 141.04C319.463 141.808 318.791 142.736 318.343 143.824C317.895 144.88 317.671 146.048 317.671 147.328C317.671 148.96 318.119 150.32 319.015 151.408C319.943 152.496 321.159 153.424 322.663 154.192C324.167 154.96 325.879 155.648 327.799 156.256C329.719 156.864 331.687 157.52 333.703 158.224C335.719 158.896 337.687 159.696 339.607 160.624C341.527 161.52 343.239 162.672 344.743 164.08C346.247 165.456 347.447 167.152 348.343 169.168C349.271 171.184 349.735 173.632 349.735 176.512C349.735 179.648 349.191 182.592 348.103 185.344C347.047 188.064 345.479 190.448 343.399 192.496C341.351 194.512 338.839 196.112 335.863 197.296C332.887 198.448 329.479 199.024 325.639 199.024C323.431 199.024 321.255 198.8 319.111 198.352C316.967 197.936 314.903 197.328 312.919 196.528C310.967 195.728 309.127 194.768 307.399 193.648C305.671 192.528 304.135 191.28 302.791 189.904L306.583 183.712C306.903 183.264 307.319 182.896 307.831 182.608C308.343 182.288 308.887 182.128 309.463 182.128C310.263 182.128 311.127 182.464 312.055 183.136C312.983 183.776 314.087 184.496 315.367 185.296C316.647 186.096 318.135 186.832 319.831 187.504C321.559 188.144 323.623 188.464 326.023 188.464C329.703 188.464 332.551 187.6 334.567 185.872C336.583 184.112 337.591 181.6 337.591 178.336C337.591 176.512 337.127 175.024 336.199 173.872C335.303 172.72 334.103 171.76 332.599 170.992C331.095 170.192 329.383 169.52 327.463 168.976C325.543 168.432 323.591 167.84 321.607 167.2C319.623 166.56 317.671 165.792 315.751 164.896C313.831 164 312.119 162.832 310.615 161.392C309.111 159.952 307.895 158.16 306.967 156.016C306.071 153.84 305.623 151.168 305.623 148C305.623 145.472 306.119 143.008 307.111 140.608C308.135 138.208 309.607 136.08 311.527 134.224C313.447 132.368 315.815 130.88 318.631 129.76C321.447 128.64 324.679 128.08 328.327 128.08C332.423 128.08 336.199 128.72 339.655 130C343.111 131.28 346.055 133.072 348.487 135.376L345.271 141.472Z" fill="url(#paint4_linear)" fill-opacity="0.5"/>
<path d="M345.271 141.472C344.887 142.144 344.471 142.64 344.023 142.96C343.607 143.248 343.079 143.392 342.439 143.392C341.767 143.392 341.031 143.152 340.231 142.672C339.463 142.16 338.535 141.6 337.447 140.992C336.359 140.384 335.079 139.84 333.607 139.36C332.167 138.848 330.455 138.592 328.471 138.592C326.679 138.592 325.111 138.816 323.767 139.264C322.423 139.68 321.287 140.272 320.359 141.04C319.463 141.808 318.791 142.736 318.343 143.824C317.895 144.88 317.671 146.048 317.671 147.328C317.671 148.96 318.119 150.32 319.015 151.408C319.943 152.496 321.159 153.424 322.663 154.192C324.167 154.96 325.879 155.648 327.799 156.256C329.719 156.864 331.687 157.52 333.703 158.224C335.719 158.896 337.687 159.696 339.607 160.624C341.527 161.52 343.239 162.672 344.743 164.08C346.247 165.456 347.447 167.152 348.343 169.168C349.271 171.184 349.735 173.632 349.735 176.512C349.735 179.648 349.191 182.592 348.103 185.344C347.047 188.064 345.479 190.448 343.399 192.496C341.351 194.512 338.839 196.112 335.863 197.296C332.887 198.448 329.479 199.024 325.639 199.024C323.431 199.024 321.255 198.8 319.111 198.352C316.967 197.936 314.903 197.328 312.919 196.528C310.967 195.728 309.127 194.768 307.399 193.648C305.671 192.528 304.135 191.28 302.791 189.904L306.583 183.712C306.903 183.264 307.319 182.896 307.831 182.608C308.343 182.288 308.887 182.128 309.463 182.128C310.263 182.128 311.127 182.464 312.055 183.136C312.983 183.776 314.087 184.496 315.367 185.296C316.647 186.096 318.135 186.832 319.831 187.504C321.559 188.144 323.623 188.464 326.023 188.464C329.703 188.464 332.551 187.6 334.567 185.872C336.583 184.112 337.591 181.6 337.591 178.336C337.591 176.512 337.127 175.024 336.199 173.872C335.303 172.72 334.103 171.76 332.599 170.992C331.095 170.192 329.383 169.52 327.463 168.976C325.543 168.432 323.591 167.84 321.607 167.2C319.623 166.56 317.671 165.792 315.751 164.896C313.831 164 312.119 162.832 310.615 161.392C309.111 159.952 307.895 158.16 306.967 156.016C306.071 153.84 305.623 151.168 305.623 148C305.623 145.472 306.119 143.008 307.111 140.608C308.135 138.208 309.607 136.08 311.527 134.224C313.447 132.368 315.815 130.88 318.631 129.76C321.447 128.64 324.679 128.08 328.327 128.08C332.423 128.08 336.199 128.72 339.655 130C343.111 131.28 346.055 133.072 348.487 135.376L345.271 141.472Z" fill="url(#paint5_linear)" fill-opacity="0.5"/>
<path d="M387.446 172.096V149.392C387.446 147.248 387.59 144.88 387.878 142.288L366.326 172.096H387.446ZM406.502 172.096V178.96C406.502 179.6 406.294 180.16 405.878 180.64C405.462 181.088 404.87 181.312 404.102 181.312H397.766V198.256H387.446V181.312H358.166C357.366 181.312 356.662 181.072 356.054 180.592C355.446 180.08 355.062 179.456 354.902 178.72L353.654 172.72L386.534 128.8H397.766V172.096H406.502Z" fill="#007ACC"/>
<path d="M387.446 172.096V149.392C387.446 147.248 387.59 144.88 387.878 142.288L366.326 172.096H387.446ZM406.502 172.096V178.96C406.502 179.6 406.294 180.16 405.878 180.64C405.462 181.088 404.87 181.312 404.102 181.312H397.766V198.256H387.446V181.312H358.166C357.366 181.312 356.662 181.072 356.054 180.592C355.446 180.08 355.062 179.456 354.902 178.72L353.654 172.72L386.534 128.8H397.766V172.096H406.502Z" fill="url(#paint6_linear)" fill-opacity="0.5"/>
<path d="M387.446 172.096V149.392C387.446 147.248 387.59 144.88 387.878 142.288L366.326 172.096H387.446ZM406.502 172.096V178.96C406.502 179.6 406.294 180.16 405.878 180.64C405.462 181.088 404.87 181.312 404.102 181.312H397.766V198.256H387.446V181.312H358.166C357.366 181.312 356.662 181.072 356.054 180.592C355.446 180.08 355.062 179.456 354.902 178.72L353.654 172.72L386.534 128.8H397.766V172.096H406.502Z" fill="url(#paint7_linear)" fill-opacity="0.5"/>
<path d="M482.878 163.552C482.878 168.64 482.03 173.36 480.334 177.712C478.67 182.032 476.302 185.776 473.23 188.944C470.158 192.112 466.462 194.592 462.142 196.384C457.822 198.144 453.022 199.024 447.742 199.024C442.494 199.024 437.71 198.144 433.39 196.384C429.07 194.592 425.358 192.112 422.254 188.944C419.182 185.776 416.798 182.032 415.102 177.712C413.406 173.36 412.558 168.64 412.558 163.552C412.558 158.464 413.406 153.76 415.102 149.44C416.798 145.088 419.182 141.328 422.254 138.16C425.358 134.992 429.07 132.528 433.39 130.768C437.71 128.976 442.494 128.08 447.742 128.08C451.262 128.08 454.574 128.496 457.678 129.328C460.782 130.128 463.63 131.28 466.222 132.784C468.814 134.256 471.134 136.064 473.182 138.208C475.262 140.32 477.022 142.688 478.462 145.312C479.902 147.936 480.99 150.784 481.726 153.856C482.494 156.928 482.878 160.16 482.878 163.552ZM469.678 163.552C469.678 159.744 469.166 156.336 468.142 153.328C467.118 150.288 465.662 147.712 463.774 145.6C461.886 143.488 459.582 141.872 456.862 140.752C454.174 139.632 451.134 139.072 447.742 139.072C444.35 139.072 441.294 139.632 438.574 140.752C435.886 141.872 433.582 143.488 431.662 145.6C429.774 147.712 428.318 150.288 427.294 153.328C426.27 156.336 425.758 159.744 425.758 163.552C425.758 167.36 426.27 170.784 427.294 173.824C428.318 176.832 429.774 179.392 431.662 181.504C433.582 183.584 435.886 185.184 438.574 186.304C441.294 187.424 444.35 187.984 447.742 187.984C451.134 187.984 454.174 187.424 456.862 186.304C459.582 185.184 461.886 183.584 463.774 181.504C465.662 179.392 467.118 176.832 468.142 173.824C469.166 170.784 469.678 167.36 469.678 163.552Z" fill="#007ACC"/>
<path d="M482.878 163.552C482.878 168.64 482.03 173.36 480.334 177.712C478.67 182.032 476.302 185.776 473.23 188.944C470.158 192.112 466.462 194.592 462.142 196.384C457.822 198.144 453.022 199.024 447.742 199.024C442.494 199.024 437.71 198.144 433.39 196.384C429.07 194.592 425.358 192.112 422.254 188.944C419.182 185.776 416.798 182.032 415.102 177.712C413.406 173.36 412.558 168.64 412.558 163.552C412.558 158.464 413.406 153.76 415.102 149.44C416.798 145.088 419.182 141.328 422.254 138.16C425.358 134.992 429.07 132.528 433.39 130.768C437.71 128.976 442.494 128.08 447.742 128.08C451.262 128.08 454.574 128.496 457.678 129.328C460.782 130.128 463.63 131.28 466.222 132.784C468.814 134.256 471.134 136.064 473.182 138.208C475.262 140.32 477.022 142.688 478.462 145.312C479.902 147.936 480.99 150.784 481.726 153.856C482.494 156.928 482.878 160.16 482.878 163.552ZM469.678 163.552C469.678 159.744 469.166 156.336 468.142 153.328C467.118 150.288 465.662 147.712 463.774 145.6C461.886 143.488 459.582 141.872 456.862 140.752C454.174 139.632 451.134 139.072 447.742 139.072C444.35 139.072 441.294 139.632 438.574 140.752C435.886 141.872 433.582 143.488 431.662 145.6C429.774 147.712 428.318 150.288 427.294 153.328C426.27 156.336 425.758 159.744 425.758 163.552C425.758 167.36 426.27 170.784 427.294 173.824C428.318 176.832 429.774 179.392 431.662 181.504C433.582 183.584 435.886 185.184 438.574 186.304C441.294 187.424 444.35 187.984 447.742 187.984C451.134 187.984 454.174 187.424 456.862 186.304C459.582 185.184 461.886 183.584 463.774 181.504C465.662 179.392 467.118 176.832 468.142 173.824C469.166 170.784 469.678 167.36 469.678 163.552Z" fill="url(#paint8_linear)" fill-opacity="0.5"/>
<path d="M482.878 163.552C482.878 168.64 482.03 173.36 480.334 177.712C478.67 182.032 476.302 185.776 473.23 188.944C470.158 192.112 466.462 194.592 462.142 196.384C457.822 198.144 453.022 199.024 447.742 199.024C442.494 199.024 437.71 198.144 433.39 196.384C429.07 194.592 425.358 192.112 422.254 188.944C419.182 185.776 416.798 182.032 415.102 177.712C413.406 173.36 412.558 168.64 412.558 163.552C412.558 158.464 413.406 153.76 415.102 149.44C416.798 145.088 419.182 141.328 422.254 138.16C425.358 134.992 429.07 132.528 433.39 130.768C437.71 128.976 442.494 128.08 447.742 128.08C451.262 128.08 454.574 128.496 457.678 129.328C460.782 130.128 463.63 131.28 466.222 132.784C468.814 134.256 471.134 136.064 473.182 138.208C475.262 140.32 477.022 142.688 478.462 145.312C479.902 147.936 480.99 150.784 481.726 153.856C482.494 156.928 482.878 160.16 482.878 163.552ZM469.678 163.552C469.678 159.744 469.166 156.336 468.142 153.328C467.118 150.288 465.662 147.712 463.774 145.6C461.886 143.488 459.582 141.872 456.862 140.752C454.174 139.632 451.134 139.072 447.742 139.072C444.35 139.072 441.294 139.632 438.574 140.752C435.886 141.872 433.582 143.488 431.662 145.6C429.774 147.712 428.318 150.288 427.294 153.328C426.27 156.336 425.758 159.744 425.758 163.552C425.758 167.36 426.27 170.784 427.294 173.824C428.318 176.832 429.774 179.392 431.662 181.504C433.582 183.584 435.886 185.184 438.574 186.304C441.294 187.424 444.35 187.984 447.742 187.984C451.134 187.984 454.174 187.424 456.862 186.304C459.582 185.184 461.886 183.584 463.774 181.504C465.662 179.392 467.118 176.832 468.142 173.824C469.166 170.784 469.678 167.36 469.678 163.552Z" fill="url(#paint9_linear)" fill-opacity="0.5"/>
<path d="M541.881 181.888C542.585 181.888 543.209 182.16 543.753 182.704L548.841 188.224C546.025 191.712 542.553 194.384 538.425 196.24C534.329 198.096 529.401 199.024 523.641 199.024C518.489 199.024 513.849 198.144 509.721 196.384C505.625 194.624 502.121 192.176 499.209 189.04C496.297 185.904 494.057 182.16 492.489 177.808C490.953 173.456 490.185 168.704 490.185 163.552C490.185 158.336 491.017 153.568 492.681 149.248C494.345 144.896 496.681 141.152 499.689 138.016C502.729 134.88 506.345 132.448 510.537 130.72C514.729 128.96 519.369 128.08 524.457 128.08C529.513 128.08 533.993 128.912 537.897 130.576C541.833 132.24 545.177 134.416 547.929 137.104L543.609 143.104C543.353 143.488 543.017 143.824 542.601 144.112C542.217 144.4 541.673 144.544 540.969 144.544C540.489 144.544 539.993 144.416 539.481 144.16C538.969 143.872 538.409 143.536 537.801 143.152C537.193 142.736 536.489 142.288 535.689 141.808C534.889 141.328 533.961 140.896 532.905 140.512C531.849 140.096 530.617 139.76 529.209 139.504C527.833 139.216 526.233 139.072 524.409 139.072C521.305 139.072 518.457 139.632 515.865 140.752C513.305 141.84 511.097 143.44 509.241 145.552C507.385 147.632 505.945 150.192 504.921 153.232C503.897 156.24 503.385 159.68 503.385 163.552C503.385 167.456 503.929 170.928 505.017 173.968C506.137 177.008 507.641 179.568 509.529 181.648C511.417 183.728 513.641 185.328 516.201 186.448C518.761 187.536 521.513 188.08 524.457 188.08C526.217 188.08 527.801 187.984 529.209 187.792C530.649 187.6 531.961 187.296 533.145 186.88C534.361 186.464 535.497 185.936 536.553 185.296C537.641 184.624 538.713 183.808 539.769 182.848C540.089 182.56 540.425 182.336 540.777 182.176C541.129 181.984 541.497 181.888 541.881 181.888Z" fill="#007ACC"/>
<path d="M541.881 181.888C542.585 181.888 543.209 182.16 543.753 182.704L548.841 188.224C546.025 191.712 542.553 194.384 538.425 196.24C534.329 198.096 529.401 199.024 523.641 199.024C518.489 199.024 513.849 198.144 509.721 196.384C505.625 194.624 502.121 192.176 499.209 189.04C496.297 185.904 494.057 182.16 492.489 177.808C490.953 173.456 490.185 168.704 490.185 163.552C490.185 158.336 491.017 153.568 492.681 149.248C494.345 144.896 496.681 141.152 499.689 138.016C502.729 134.88 506.345 132.448 510.537 130.72C514.729 128.96 519.369 128.08 524.457 128.08C529.513 128.08 533.993 128.912 537.897 130.576C541.833 132.24 545.177 134.416 547.929 137.104L543.609 143.104C543.353 143.488 543.017 143.824 542.601 144.112C542.217 144.4 541.673 144.544 540.969 144.544C540.489 144.544 539.993 144.416 539.481 144.16C538.969 143.872 538.409 143.536 537.801 143.152C537.193 142.736 536.489 142.288 535.689 141.808C534.889 141.328 533.961 140.896 532.905 140.512C531.849 140.096 530.617 139.76 529.209 139.504C527.833 139.216 526.233 139.072 524.409 139.072C521.305 139.072 518.457 139.632 515.865 140.752C513.305 141.84 511.097 143.44 509.241 145.552C507.385 147.632 505.945 150.192 504.921 153.232C503.897 156.24 503.385 159.68 503.385 163.552C503.385 167.456 503.929 170.928 505.017 173.968C506.137 177.008 507.641 179.568 509.529 181.648C511.417 183.728 513.641 185.328 516.201 186.448C518.761 187.536 521.513 188.08 524.457 188.08C526.217 188.08 527.801 187.984 529.209 187.792C530.649 187.6 531.961 187.296 533.145 186.88C534.361 186.464 535.497 185.936 536.553 185.296C537.641 184.624 538.713 183.808 539.769 182.848C540.089 182.56 540.425 182.336 540.777 182.176C541.129 181.984 541.497 181.888 541.881 181.888Z" fill="url(#paint10_linear)" fill-opacity="0.5"/>
<path d="M541.881 181.888C542.585 181.888 543.209 182.16 543.753 182.704L548.841 188.224C546.025 191.712 542.553 194.384 538.425 196.24C534.329 198.096 529.401 199.024 523.641 199.024C518.489 199.024 513.849 198.144 509.721 196.384C505.625 194.624 502.121 192.176 499.209 189.04C496.297 185.904 494.057 182.16 492.489 177.808C490.953 173.456 490.185 168.704 490.185 163.552C490.185 158.336 491.017 153.568 492.681 149.248C494.345 144.896 496.681 141.152 499.689 138.016C502.729 134.88 506.345 132.448 510.537 130.72C514.729 128.96 519.369 128.08 524.457 128.08C529.513 128.08 533.993 128.912 537.897 130.576C541.833 132.24 545.177 134.416 547.929 137.104L543.609 143.104C543.353 143.488 543.017 143.824 542.601 144.112C542.217 144.4 541.673 144.544 540.969 144.544C540.489 144.544 539.993 144.416 539.481 144.16C538.969 143.872 538.409 143.536 537.801 143.152C537.193 142.736 536.489 142.288 535.689 141.808C534.889 141.328 533.961 140.896 532.905 140.512C531.849 140.096 530.617 139.76 529.209 139.504C527.833 139.216 526.233 139.072 524.409 139.072C521.305 139.072 518.457 139.632 515.865 140.752C513.305 141.84 511.097 143.44 509.241 145.552C507.385 147.632 505.945 150.192 504.921 153.232C503.897 156.24 503.385 159.68 503.385 163.552C503.385 167.456 503.929 170.928 505.017 173.968C506.137 177.008 507.641 179.568 509.529 181.648C511.417 183.728 513.641 185.328 516.201 186.448C518.761 187.536 521.513 188.08 524.457 188.08C526.217 188.08 527.801 187.984 529.209 187.792C530.649 187.6 531.961 187.296 533.145 186.88C534.361 186.464 535.497 185.936 536.553 185.296C537.641 184.624 538.713 183.808 539.769 182.848C540.089 182.56 540.425 182.336 540.777 182.176C541.129 181.984 541.497 181.888 541.881 181.888Z" fill="url(#paint11_linear)" fill-opacity="0.5"/>
<path d="M619.318 163.552C619.318 168.64 618.47 173.312 616.774 177.568C615.078 181.824 612.694 185.488 609.622 188.56C606.55 191.632 602.854 194.016 598.534 195.712C594.214 197.408 589.414 198.256 584.134 198.256H557.686V128.848H584.134C589.414 128.848 594.214 129.712 598.534 131.44C602.854 133.136 606.55 135.52 609.622 138.592C612.694 141.632 615.078 145.28 616.774 149.536C618.47 153.792 619.318 158.464 619.318 163.552ZM606.07 163.552C606.07 159.744 605.558 156.336 604.534 153.328C603.542 150.288 602.086 147.728 600.166 145.648C598.278 143.536 595.974 141.92 593.254 140.8C590.566 139.68 587.526 139.12 584.134 139.12H570.646V187.984H584.134C587.526 187.984 590.566 187.424 593.254 186.304C595.974 185.184 598.278 183.584 600.166 181.504C602.086 179.392 603.542 176.832 604.534 173.824C605.558 170.784 606.07 167.36 606.07 163.552Z" fill="#007ACC"/>
<path d="M619.318 163.552C619.318 168.64 618.47 173.312 616.774 177.568C615.078 181.824 612.694 185.488 609.622 188.56C606.55 191.632 602.854 194.016 598.534 195.712C594.214 197.408 589.414 198.256 584.134 198.256H557.686V128.848H584.134C589.414 128.848 594.214 129.712 598.534 131.44C602.854 133.136 606.55 135.52 609.622 138.592C612.694 141.632 615.078 145.28 616.774 149.536C618.47 153.792 619.318 158.464 619.318 163.552ZM606.07 163.552C606.07 159.744 605.558 156.336 604.534 153.328C603.542 150.288 602.086 147.728 600.166 145.648C598.278 143.536 595.974 141.92 593.254 140.8C590.566 139.68 587.526 139.12 584.134 139.12H570.646V187.984H584.134C587.526 187.984 590.566 187.424 593.254 186.304C595.974 185.184 598.278 183.584 600.166 181.504C602.086 179.392 603.542 176.832 604.534 173.824C605.558 170.784 606.07 167.36 606.07 163.552Z" fill="url(#paint12_linear)" fill-opacity="0.5"/>
<path d="M619.318 163.552C619.318 168.64 618.47 173.312 616.774 177.568C615.078 181.824 612.694 185.488 609.622 188.56C606.55 191.632 602.854 194.016 598.534 195.712C594.214 197.408 589.414 198.256 584.134 198.256H557.686V128.848H584.134C589.414 128.848 594.214 129.712 598.534 131.44C602.854 133.136 606.55 135.52 609.622 138.592C612.694 141.632 615.078 145.28 616.774 149.536C618.47 153.792 619.318 158.464 619.318 163.552ZM606.07 163.552C606.07 159.744 605.558 156.336 604.534 153.328C603.542 150.288 602.086 147.728 600.166 145.648C598.278 143.536 595.974 141.92 593.254 140.8C590.566 139.68 587.526 139.12 584.134 139.12H570.646V187.984H584.134C587.526 187.984 590.566 187.424 593.254 186.304C595.974 185.184 598.278 183.584 600.166 181.504C602.086 179.392 603.542 176.832 604.534 173.824C605.558 170.784 606.07 167.36 606.07 163.552Z" fill="url(#paint13_linear)" fill-opacity="0.5"/>
<path d="M667.677 141.472C667.293 142.144 666.877 142.64 666.429 142.96C666.013 143.248 665.485 143.392 664.845 143.392C664.173 143.392 663.437 143.152 662.637 142.672C661.869 142.16 660.941 141.6 659.853 140.992C658.765 140.384 657.485 139.84 656.013 139.36C654.573 138.848 652.861 138.592 650.877 138.592C649.085 138.592 647.517 138.816 646.173 139.264C644.829 139.68 643.693 140.272 642.765 141.04C641.869 141.808 641.197 142.736 640.749 143.824C640.301 144.88 640.077 146.048 640.077 147.328C640.077 148.96 640.525 150.32 641.421 151.408C642.349 152.496 643.565 153.424 645.069 154.192C646.573 154.96 648.285 155.648 650.205 156.256C652.125 156.864 654.093 157.52 656.109 158.224C658.125 158.896 660.093 159.696 662.013 160.624C663.933 161.52 665.645 162.672 667.149 164.08C668.653 165.456 669.853 167.152 670.749 169.168C671.677 171.184 672.141 173.632 672.141 176.512C672.141 179.648 671.597 182.592 670.509 185.344C669.453 188.064 667.885 190.448 665.805 192.496C663.757 194.512 661.245 196.112 658.269 197.296C655.293 198.448 651.885 199.024 648.045 199.024C645.837 199.024 643.661 198.8 641.517 198.352C639.373 197.936 637.309 197.328 635.325 196.528C633.373 195.728 631.533 194.768 629.805 193.648C628.077 192.528 626.541 191.28 625.197 189.904L628.989 183.712C629.309 183.264 629.725 182.896 630.237 182.608C630.749 182.288 631.293 182.128 631.869 182.128C632.669 182.128 633.533 182.464 634.461 183.136C635.389 183.776 636.493 184.496 637.773 185.296C639.053 186.096 640.541 186.832 642.237 187.504C643.965 188.144 646.029 188.464 648.429 188.464C652.109 188.464 654.957 187.6 656.973 185.872C658.989 184.112 659.997 181.6 659.997 178.336C659.997 176.512 659.533 175.024 658.605 173.872C657.709 172.72 656.509 171.76 655.005 170.992C653.501 170.192 651.789 169.52 649.869 168.976C647.949 168.432 645.997 167.84 644.013 167.2C642.029 166.56 640.077 165.792 638.157 164.896C636.237 164 634.525 162.832 633.021 161.392C631.517 159.952 630.301 158.16 629.373 156.016C628.477 153.84 628.029 151.168 628.029 148C628.029 145.472 628.525 143.008 629.517 140.608C630.541 138.208 632.013 136.08 633.933 134.224C635.853 132.368 638.221 130.88 641.037 129.76C643.853 128.64 647.085 128.08 650.733 128.08C654.829 128.08 658.605 128.72 662.061 130C665.517 131.28 668.461 133.072 670.893 135.376L667.677 141.472Z" fill="#007ACC"/>
<path d="M667.677 141.472C667.293 142.144 666.877 142.64 666.429 142.96C666.013 143.248 665.485 143.392 664.845 143.392C664.173 143.392 663.437 143.152 662.637 142.672C661.869 142.16 660.941 141.6 659.853 140.992C658.765 140.384 657.485 139.84 656.013 139.36C654.573 138.848 652.861 138.592 650.877 138.592C649.085 138.592 647.517 138.816 646.173 139.264C644.829 139.68 643.693 140.272 642.765 141.04C641.869 141.808 641.197 142.736 640.749 143.824C640.301 144.88 640.077 146.048 640.077 147.328C640.077 148.96 640.525 150.32 641.421 151.408C642.349 152.496 643.565 153.424 645.069 154.192C646.573 154.96 648.285 155.648 650.205 156.256C652.125 156.864 654.093 157.52 656.109 158.224C658.125 158.896 660.093 159.696 662.013 160.624C663.933 161.52 665.645 162.672 667.149 164.08C668.653 165.456 669.853 167.152 670.749 169.168C671.677 171.184 672.141 173.632 672.141 176.512C672.141 179.648 671.597 182.592 670.509 185.344C669.453 188.064 667.885 190.448 665.805 192.496C663.757 194.512 661.245 196.112 658.269 197.296C655.293 198.448 651.885 199.024 648.045 199.024C645.837 199.024 643.661 198.8 641.517 198.352C639.373 197.936 637.309 197.328 635.325 196.528C633.373 195.728 631.533 194.768 629.805 193.648C628.077 192.528 626.541 191.28 625.197 189.904L628.989 183.712C629.309 183.264 629.725 182.896 630.237 182.608C630.749 182.288 631.293 182.128 631.869 182.128C632.669 182.128 633.533 182.464 634.461 183.136C635.389 183.776 636.493 184.496 637.773 185.296C639.053 186.096 640.541 186.832 642.237 187.504C643.965 188.144 646.029 188.464 648.429 188.464C652.109 188.464 654.957 187.6 656.973 185.872C658.989 184.112 659.997 181.6 659.997 178.336C659.997 176.512 659.533 175.024 658.605 173.872C657.709 172.72 656.509 171.76 655.005 170.992C653.501 170.192 651.789 169.52 649.869 168.976C647.949 168.432 645.997 167.84 644.013 167.2C642.029 166.56 640.077 165.792 638.157 164.896C636.237 164 634.525 162.832 633.021 161.392C631.517 159.952 630.301 158.16 629.373 156.016C628.477 153.84 628.029 151.168 628.029 148C628.029 145.472 628.525 143.008 629.517 140.608C630.541 138.208 632.013 136.08 633.933 134.224C635.853 132.368 638.221 130.88 641.037 129.76C643.853 128.64 647.085 128.08 650.733 128.08C654.829 128.08 658.605 128.72 662.061 130C665.517 131.28 668.461 133.072 670.893 135.376L667.677 141.472Z" fill="url(#paint14_linear)" fill-opacity="0.5"/>
<path d="M667.677 141.472C667.293 142.144 666.877 142.64 666.429 142.96C666.013 143.248 665.485 143.392 664.845 143.392C664.173 143.392 663.437 143.152 662.637 142.672C661.869 142.16 660.941 141.6 659.853 140.992C658.765 140.384 657.485 139.84 656.013 139.36C654.573 138.848 652.861 138.592 650.877 138.592C649.085 138.592 647.517 138.816 646.173 139.264C644.829 139.68 643.693 140.272 642.765 141.04C641.869 141.808 641.197 142.736 640.749 143.824C640.301 144.88 640.077 146.048 640.077 147.328C640.077 148.96 640.525 150.32 641.421 151.408C642.349 152.496 643.565 153.424 645.069 154.192C646.573 154.96 648.285 155.648 650.205 156.256C652.125 156.864 654.093 157.52 656.109 158.224C658.125 158.896 660.093 159.696 662.013 160.624C663.933 161.52 665.645 162.672 667.149 164.08C668.653 165.456 669.853 167.152 670.749 169.168C671.677 171.184 672.141 173.632 672.141 176.512C672.141 179.648 671.597 182.592 670.509 185.344C669.453 188.064 667.885 190.448 665.805 192.496C663.757 194.512 661.245 196.112 658.269 197.296C655.293 198.448 651.885 199.024 648.045 199.024C645.837 199.024 643.661 198.8 641.517 198.352C639.373 197.936 637.309 197.328 635.325 196.528C633.373 195.728 631.533 194.768 629.805 193.648C628.077 192.528 626.541 191.28 625.197 189.904L628.989 183.712C629.309 183.264 629.725 182.896 630.237 182.608C630.749 182.288 631.293 182.128 631.869 182.128C632.669 182.128 633.533 182.464 634.461 183.136C635.389 183.776 636.493 184.496 637.773 185.296C639.053 186.096 640.541 186.832 642.237 187.504C643.965 188.144 646.029 188.464 648.429 188.464C652.109 188.464 654.957 187.6 656.973 185.872C658.989 184.112 659.997 181.6 659.997 178.336C659.997 176.512 659.533 175.024 658.605 173.872C657.709 172.72 656.509 171.76 655.005 170.992C653.501 170.192 651.789 169.52 649.869 168.976C647.949 168.432 645.997 167.84 644.013 167.2C642.029 166.56 640.077 165.792 638.157 164.896C636.237 164 634.525 162.832 633.021 161.392C631.517 159.952 630.301 158.16 629.373 156.016C628.477 153.84 628.029 151.168 628.029 148C628.029 145.472 628.525 143.008 629.517 140.608C630.541 138.208 632.013 136.08 633.933 134.224C635.853 132.368 638.221 130.88 641.037 129.76C643.853 128.64 647.085 128.08 650.733 128.08C654.829 128.08 658.605 128.72 662.061 130C665.517 131.28 668.461 133.072 670.893 135.376L667.677 141.472Z" fill="url(#paint15_linear)" fill-opacity="0.5"/>
<path d="M711.917 167.952C709.901 167.952 708.429 168.576 707.501 169.824C706.605 171.04 706.157 172.624 706.157 174.576C706.157 176.08 706.253 177.584 706.445 179.088C706.669 180.592 706.909 182.096 707.165 183.6C707.453 185.104 707.693 186.624 707.885 188.16C708.109 189.664 708.221 191.2 708.221 192.768C708.221 195.2 707.869 197.408 707.165 199.392C706.461 201.408 705.373 203.12 703.901 204.528C702.461 205.968 700.621 207.072 698.381 207.84C696.173 208.64 693.565 209.04 690.557 209.04H688.013V203.808C688.013 203.392 688.093 203.024 688.253 202.704C688.445 202.384 688.668 202.128 688.924 201.936C689.212 201.744 689.501 201.6 689.789 201.504C690.077 201.408 690.333 201.36 690.557 201.36H690.989C693.229 201.36 694.925 200.656 696.077 199.248C697.261 197.84 697.853 195.92 697.853 193.488C697.853 191.728 697.757 190.048 697.565 188.448C697.405 186.816 697.213 185.248 696.989 183.744C696.765 182.208 696.557 180.704 696.365 179.232C696.205 177.76 696.125 176.272 696.125 174.768C696.125 173.584 696.285 172.448 696.605 171.36C696.957 170.272 697.452 169.28 698.092 168.384C698.732 167.488 699.501 166.72 700.397 166.08C701.325 165.408 702.365 164.896 703.517 164.544C702.365 164.224 701.325 163.728 700.397 163.056C699.501 162.384 698.732 161.6 698.092 160.704C697.452 159.808 696.957 158.816 696.605 157.728C696.285 156.64 696.125 155.504 696.125 154.32C696.125 152.816 696.205 151.328 696.365 149.856C696.557 148.384 696.765 146.896 696.989 145.392C697.213 143.856 697.405 142.288 697.565 140.688C697.757 139.056 697.853 137.36 697.853 135.6C697.853 133.136 697.261 131.2 696.077 129.792C694.925 128.384 693.229 127.68 690.989 127.68H690.557C690.333 127.68 690.077 127.632 689.789 127.536C689.501 127.44 689.212 127.296 688.924 127.104C688.668 126.912 688.445 126.672 688.253 126.384C688.093 126.064 688.013 125.696 688.013 125.28V120H690.557C693.565 120 696.173 120.4 698.381 121.2C700.621 121.968 702.461 123.072 703.901 124.512C705.373 125.952 706.461 127.68 707.165 129.696C707.869 131.68 708.221 133.888 708.221 136.32C708.221 137.888 708.109 139.44 707.885 140.976C707.693 142.48 707.453 143.984 707.165 145.488C706.909 146.992 706.669 148.496 706.445 150C706.253 151.472 706.157 152.96 706.157 154.464C706.157 156.416 706.605 158.016 707.501 159.264C708.429 160.48 709.901 161.088 711.917 161.088V167.952Z" fill="#007ACC"/>
<path d="M711.917 167.952C709.901 167.952 708.429 168.576 707.501 169.824C706.605 171.04 706.157 172.624 706.157 174.576C706.157 176.08 706.253 177.584 706.445 179.088C706.669 180.592 706.909 182.096 707.165 183.6C707.453 185.104 707.693 186.624 707.885 188.16C708.109 189.664 708.221 191.2 708.221 192.768C708.221 195.2 707.869 197.408 707.165 199.392C706.461 201.408 705.373 203.12 703.901 204.528C702.461 205.968 700.621 207.072 698.381 207.84C696.173 208.64 693.565 209.04 690.557 209.04H688.013V203.808C688.013 203.392 688.093 203.024 688.253 202.704C688.445 202.384 688.668 202.128 688.924 201.936C689.212 201.744 689.501 201.6 689.789 201.504C690.077 201.408 690.333 201.36 690.557 201.36H690.989C693.229 201.36 694.925 200.656 696.077 199.248C697.261 197.84 697.853 195.92 697.853 193.488C697.853 191.728 697.757 190.048 697.565 188.448C697.405 186.816 697.213 185.248 696.989 183.744C696.765 182.208 696.557 180.704 696.365 179.232C696.205 177.76 696.125 176.272 696.125 174.768C696.125 173.584 696.285 172.448 696.605 171.36C696.957 170.272 697.452 169.28 698.092 168.384C698.732 167.488 699.501 166.72 700.397 166.08C701.325 165.408 702.365 164.896 703.517 164.544C702.365 164.224 701.325 163.728 700.397 163.056C699.501 162.384 698.732 161.6 698.092 160.704C697.452 159.808 696.957 158.816 696.605 157.728C696.285 156.64 696.125 155.504 696.125 154.32C696.125 152.816 696.205 151.328 696.365 149.856C696.557 148.384 696.765 146.896 696.989 145.392C697.213 143.856 697.405 142.288 697.565 140.688C697.757 139.056 697.853 137.36 697.853 135.6C697.853 133.136 697.261 131.2 696.077 129.792C694.925 128.384 693.229 127.68 690.989 127.68H690.557C690.333 127.68 690.077 127.632 689.789 127.536C689.501 127.44 689.212 127.296 688.924 127.104C688.668 126.912 688.445 126.672 688.253 126.384C688.093 126.064 688.013 125.696 688.013 125.28V120H690.557C693.565 120 696.173 120.4 698.381 121.2C700.621 121.968 702.461 123.072 703.901 124.512C705.373 125.952 706.461 127.68 707.165 129.696C707.869 131.68 708.221 133.888 708.221 136.32C708.221 137.888 708.109 139.44 707.885 140.976C707.693 142.48 707.453 143.984 707.165 145.488C706.909 146.992 706.669 148.496 706.445 150C706.253 151.472 706.157 152.96 706.157 154.464C706.157 156.416 706.605 158.016 707.501 159.264C708.429 160.48 709.901 161.088 711.917 161.088V167.952Z" fill="url(#paint16_linear)" fill-opacity="0.5"/>
<path d="M711.917 167.952C709.901 167.952 708.429 168.576 707.501 169.824C706.605 171.04 706.157 172.624 706.157 174.576C706.157 176.08 706.253 177.584 706.445 179.088C706.669 180.592 706.909 182.096 707.165 183.6C707.453 185.104 707.693 186.624 707.885 188.16C708.109 189.664 708.221 191.2 708.221 192.768C708.221 195.2 707.869 197.408 707.165 199.392C706.461 201.408 705.373 203.12 703.901 204.528C702.461 205.968 700.621 207.072 698.381 207.84C696.173 208.64 693.565 209.04 690.557 209.04H688.013V203.808C688.013 203.392 688.093 203.024 688.253 202.704C688.445 202.384 688.668 202.128 688.924 201.936C689.212 201.744 689.501 201.6 689.789 201.504C690.077 201.408 690.333 201.36 690.557 201.36H690.989C693.229 201.36 694.925 200.656 696.077 199.248C697.261 197.84 697.853 195.92 697.853 193.488C697.853 191.728 697.757 190.048 697.565 188.448C697.405 186.816 697.213 185.248 696.989 183.744C696.765 182.208 696.557 180.704 696.365 179.232C696.205 177.76 696.125 176.272 696.125 174.768C696.125 173.584 696.285 172.448 696.605 171.36C696.957 170.272 697.452 169.28 698.092 168.384C698.732 167.488 699.501 166.72 700.397 166.08C701.325 165.408 702.365 164.896 703.517 164.544C702.365 164.224 701.325 163.728 700.397 163.056C699.501 162.384 698.732 161.6 698.092 160.704C697.452 159.808 696.957 158.816 696.605 157.728C696.285 156.64 696.125 155.504 696.125 154.32C696.125 152.816 696.205 151.328 696.365 149.856C696.557 148.384 696.765 146.896 696.989 145.392C697.213 143.856 697.405 142.288 697.565 140.688C697.757 139.056 697.853 137.36 697.853 135.6C697.853 133.136 697.261 131.2 696.077 129.792C694.925 128.384 693.229 127.68 690.989 127.68H690.557C690.333 127.68 690.077 127.632 689.789 127.536C689.501 127.44 689.212 127.296 688.924 127.104C688.668 126.912 688.445 126.672 688.253 126.384C688.093 126.064 688.013 125.696 688.013 125.28V120H690.557C693.565 120 696.173 120.4 698.381 121.2C700.621 121.968 702.461 123.072 703.901 124.512C705.373 125.952 706.461 127.68 707.165 129.696C707.869 131.68 708.221 133.888 708.221 136.32C708.221 137.888 708.109 139.44 707.885 140.976C707.693 142.48 707.453 143.984 707.165 145.488C706.909 146.992 706.669 148.496 706.445 150C706.253 151.472 706.157 152.96 706.157 154.464C706.157 156.416 706.605 158.016 707.501 159.264C708.429 160.48 709.901 161.088 711.917 161.088V167.952Z" fill="url(#paint17_linear)" fill-opacity="0.5"/>
<path d="M360.534 224.136H355.302V238.836H352.074V224.136H346.842V221.484H360.534V224.136Z" fill="#262626"/>
<path d="M371.481 226.524L364.773 242.22C364.685 242.428 364.569 242.584 364.425 242.688C364.289 242.8 364.077 242.856 363.789 242.856H361.581L363.885 237.912L358.905 226.524H361.509C361.741 226.524 361.921 226.58 362.049 226.692C362.185 226.804 362.285 226.932 362.349 227.076L364.965 233.46C365.053 233.676 365.125 233.892 365.181 234.108C365.245 234.324 365.305 234.544 365.361 234.768C365.433 234.544 365.505 234.324 365.577 234.108C365.649 233.884 365.729 233.664 365.817 233.448L368.289 227.076C368.353 226.916 368.457 226.784 368.601 226.68C368.753 226.576 368.921 226.524 369.105 226.524H371.481Z" fill="#262626"/>
<path d="M375.918 235.644C376.254 236.052 376.618 236.34 377.01 236.508C377.41 236.676 377.842 236.76 378.306 236.76C378.754 236.76 379.158 236.676 379.518 236.508C379.878 236.34 380.182 236.084 380.43 235.74C380.686 235.396 380.882 234.964 381.018 234.444C381.154 233.916 381.222 233.296 381.222 232.584C381.222 231.864 381.162 231.256 381.042 230.76C380.93 230.256 380.766 229.848 380.55 229.536C380.334 229.224 380.07 228.996 379.758 228.852C379.454 228.708 379.106 228.636 378.714 228.636C378.098 228.636 377.574 228.768 377.142 229.032C376.71 229.288 376.302 229.652 375.918 230.124V235.644ZM375.762 228.204C376.266 227.636 376.838 227.176 377.478 226.824C378.118 226.472 378.87 226.296 379.734 226.296C380.406 226.296 381.018 226.436 381.57 226.716C382.13 226.996 382.61 227.404 383.01 227.94C383.418 228.468 383.73 229.124 383.946 229.908C384.17 230.684 384.282 231.576 384.282 232.584C384.282 233.504 384.158 234.356 383.91 235.14C383.662 235.924 383.306 236.604 382.842 237.18C382.386 237.756 381.83 238.208 381.174 238.536C380.526 238.856 379.798 239.016 378.99 239.016C378.302 239.016 377.714 238.912 377.226 238.704C376.738 238.488 376.302 238.192 375.918 237.816V242.856H372.954V226.524H374.766C375.15 226.524 375.402 226.704 375.522 227.064L375.762 228.204Z" fill="#262626"/>
<path d="M394.526 231.264C394.526 230.88 394.47 230.52 394.358 230.184C394.254 229.84 394.094 229.54 393.878 229.284C393.662 229.028 393.386 228.828 393.05 228.684C392.722 228.532 392.338 228.456 391.898 228.456C391.042 228.456 390.366 228.7 389.87 229.188C389.382 229.676 389.07 230.368 388.934 231.264H394.526ZM388.874 233.052C388.922 233.684 389.034 234.232 389.21 234.696C389.386 235.152 389.618 235.532 389.906 235.836C390.194 236.132 390.534 236.356 390.926 236.508C391.326 236.652 391.766 236.724 392.246 236.724C392.726 236.724 393.138 236.668 393.482 236.556C393.834 236.444 394.138 236.32 394.394 236.184C394.658 236.048 394.886 235.924 395.078 235.812C395.278 235.7 395.47 235.644 395.654 235.644C395.902 235.644 396.086 235.736 396.206 235.92L397.058 237C396.73 237.384 396.362 237.708 395.954 237.972C395.546 238.228 395.118 238.436 394.67 238.596C394.23 238.748 393.778 238.856 393.314 238.92C392.858 238.984 392.414 239.016 391.982 239.016C391.126 239.016 390.33 238.876 389.594 238.596C388.858 238.308 388.218 237.888 387.674 237.336C387.13 236.776 386.702 236.088 386.39 235.272C386.078 234.448 385.922 233.496 385.922 232.416C385.922 231.576 386.058 230.788 386.33 230.052C386.602 229.308 386.99 228.664 387.494 228.12C388.006 227.568 388.626 227.132 389.354 226.812C390.09 226.492 390.918 226.332 391.838 226.332C392.614 226.332 393.33 226.456 393.986 226.704C394.642 226.952 395.206 227.316 395.678 227.796C396.15 228.268 396.518 228.852 396.782 229.548C397.054 230.236 397.19 231.024 397.19 231.912C397.19 232.36 397.142 232.664 397.046 232.824C396.95 232.976 396.766 233.052 396.494 233.052H388.874Z" fill="#262626"/>
<path d="M408.888 224.64C408.792 224.808 408.688 224.932 408.576 225.012C408.472 225.084 408.34 225.12 408.18 225.12C408.012 225.12 407.828 225.06 407.628 224.94C407.436 224.812 407.204 224.672 406.932 224.52C406.66 224.368 406.34 224.232 405.972 224.112C405.612 223.984 405.184 223.92 404.688 223.92C404.24 223.92 403.848 223.976 403.512 224.088C403.176 224.192 402.892 224.34 402.66 224.532C402.436 224.724 402.268 224.956 402.156 225.228C402.044 225.492 401.988 225.784 401.988 226.104C401.988 226.512 402.1 226.852 402.324 227.124C402.556 227.396 402.86 227.628 403.236 227.82C403.612 228.012 404.04 228.184 404.52 228.336C405 228.488 405.492 228.652 405.996 228.828C406.5 228.996 406.992 229.196 407.472 229.428C407.952 229.652 408.38 229.94 408.756 230.292C409.132 230.636 409.432 231.06 409.656 231.564C409.888 232.068 410.004 232.68 410.004 233.4C410.004 234.184 409.868 234.92 409.596 235.608C409.332 236.288 408.94 236.884 408.42 237.396C407.908 237.9 407.28 238.3 406.536 238.596C405.792 238.884 404.94 239.028 403.98 239.028C403.428 239.028 402.884 238.972 402.348 238.86C401.812 238.756 401.296 238.604 400.8 238.404C400.312 238.204 399.852 237.964 399.42 237.684C398.988 237.404 398.604 237.092 398.268 236.748L399.216 235.2C399.296 235.088 399.4 234.996 399.528 234.924C399.656 234.844 399.792 234.804 399.936 234.804C400.136 234.804 400.352 234.888 400.584 235.056C400.816 235.216 401.092 235.396 401.412 235.596C401.732 235.796 402.104 235.98 402.528 236.148C402.96 236.308 403.476 236.388 404.076 236.388C404.996 236.388 405.708 236.172 406.212 235.74C406.716 235.3 406.968 234.672 406.968 233.856C406.968 233.4 406.852 233.028 406.62 232.74C406.396 232.452 406.096 232.212 405.72 232.02C405.344 231.82 404.916 231.652 404.436 231.516C403.956 231.38 403.468 231.232 402.972 231.072C402.476 230.912 401.988 230.72 401.508 230.496C401.028 230.272 400.6 229.98 400.224 229.62C399.848 229.26 399.544 228.812 399.312 228.276C399.088 227.732 398.976 227.064 398.976 226.272C398.976 225.64 399.1 225.024 399.348 224.424C399.604 223.824 399.972 223.292 400.452 222.828C400.932 222.364 401.524 221.992 402.228 221.712C402.932 221.432 403.74 221.292 404.652 221.292C405.676 221.292 406.62 221.452 407.484 221.772C408.348 222.092 409.084 222.54 409.692 223.116L408.888 224.64Z" fill="#262626"/>
<path d="M421.125 229.128C421.037 229.24 420.949 229.328 420.861 229.392C420.781 229.456 420.661 229.488 420.501 229.488C420.349 229.488 420.201 229.444 420.057 229.356C419.913 229.26 419.741 229.156 419.541 229.044C419.341 228.924 419.101 228.82 418.821 228.732C418.549 228.636 418.209 228.588 417.801 228.588C417.281 228.588 416.825 228.684 416.433 228.876C416.041 229.06 415.713 229.328 415.449 229.68C415.193 230.032 415.001 230.46 414.873 230.964C414.745 231.46 414.681 232.024 414.681 232.656C414.681 233.312 414.749 233.896 414.885 234.408C415.029 234.92 415.233 235.352 415.497 235.704C415.761 236.048 416.081 236.312 416.457 236.496C416.833 236.672 417.257 236.76 417.729 236.76C418.201 236.76 418.581 236.704 418.869 236.592C419.165 236.472 419.413 236.344 419.613 236.208C419.813 236.064 419.985 235.936 420.129 235.824C420.281 235.704 420.449 235.644 420.633 235.644C420.873 235.644 421.053 235.736 421.173 235.92L422.025 237C421.697 237.384 421.341 237.708 420.957 237.972C420.573 238.228 420.173 238.436 419.757 238.596C419.349 238.748 418.925 238.856 418.485 238.92C418.053 238.984 417.621 239.016 417.189 239.016C416.429 239.016 415.713 238.876 415.041 238.596C414.369 238.308 413.781 237.892 413.277 237.348C412.773 236.804 412.373 236.14 412.077 235.356C411.789 234.564 411.645 233.664 411.645 232.656C411.645 231.752 411.773 230.916 412.029 230.148C412.293 229.372 412.677 228.704 413.181 228.144C413.685 227.576 414.309 227.132 415.053 226.812C415.797 226.492 416.653 226.332 417.621 226.332C418.541 226.332 419.345 226.48 420.033 226.776C420.729 227.072 421.353 227.496 421.905 228.048L421.125 229.128Z" fill="#262626"/>
<path d="M426.679 228.66C427.063 227.924 427.519 227.348 428.047 226.932C428.575 226.508 429.199 226.296 429.919 226.296C430.487 226.296 430.943 226.42 431.287 226.668L431.095 228.888C431.055 229.032 430.995 229.136 430.915 229.2C430.843 229.256 430.743 229.284 430.615 229.284C430.495 229.284 430.315 229.264 430.075 229.224C429.843 229.184 429.615 229.164 429.391 229.164C429.063 229.164 428.771 229.212 428.515 229.308C428.259 229.404 428.027 229.544 427.819 229.728C427.619 229.904 427.439 230.12 427.279 230.376C427.127 230.632 426.983 230.924 426.847 231.252V238.836H423.883V226.524H425.623C425.927 226.524 426.139 226.58 426.259 226.692C426.379 226.796 426.459 226.988 426.499 227.268L426.679 228.66Z" fill="#262626"/>
<path d="M435.909 226.524V238.836H432.933V226.524H435.909ZM436.317 222.936C436.317 223.192 436.265 223.432 436.161 223.656C436.057 223.88 435.917 224.076 435.741 224.244C435.573 224.412 435.373 224.548 435.141 224.652C434.909 224.748 434.661 224.796 434.397 224.796C434.141 224.796 433.897 224.748 433.665 224.652C433.441 224.548 433.245 224.412 433.077 224.244C432.909 224.076 432.773 223.88 432.669 223.656C432.573 223.432 432.525 223.192 432.525 222.936C432.525 222.672 432.573 222.424 432.669 222.192C432.773 221.96 432.909 221.76 433.077 221.592C433.245 221.424 433.441 221.292 433.665 221.196C433.897 221.092 434.141 221.04 434.397 221.04C434.661 221.04 434.909 221.092 435.141 221.196C435.373 221.292 435.573 221.424 435.741 221.592C435.917 221.76 436.057 221.96 436.161 222.192C436.265 222.424 436.317 222.672 436.317 222.936Z" fill="#262626"/>
<path d="M441.894 235.644C442.23 236.052 442.594 236.34 442.986 236.508C443.386 236.676 443.818 236.76 444.282 236.76C444.73 236.76 445.134 236.676 445.494 236.508C445.854 236.34 446.158 236.084 446.406 235.74C446.662 235.396 446.858 234.964 446.994 234.444C447.13 233.916 447.198 233.296 447.198 232.584C447.198 231.864 447.138 231.256 447.018 230.76C446.906 230.256 446.742 229.848 446.526 229.536C446.31 229.224 446.046 228.996 445.734 228.852C445.43 228.708 445.082 228.636 444.69 228.636C444.074 228.636 443.55 228.768 443.118 229.032C442.686 229.288 442.278 229.652 441.894 230.124V235.644ZM441.738 228.204C442.242 227.636 442.814 227.176 443.454 226.824C444.094 226.472 444.846 226.296 445.71 226.296C446.382 226.296 446.994 226.436 447.546 226.716C448.106 226.996 448.586 227.404 448.986 227.94C449.394 228.468 449.706 229.124 449.922 229.908C450.146 230.684 450.258 231.576 450.258 232.584C450.258 233.504 450.134 234.356 449.886 235.14C449.638 235.924 449.282 236.604 448.818 237.18C448.362 237.756 447.806 238.208 447.15 238.536C446.502 238.856 445.774 239.016 444.966 239.016C444.278 239.016 443.69 238.912 443.202 238.704C442.714 238.488 442.278 238.192 441.894 237.816V242.856H438.93V226.524H440.742C441.126 226.524 441.378 226.704 441.498 227.064L441.738 228.204Z" fill="#262626"/>
<path d="M456.511 239.028C455.439 239.028 454.615 238.728 454.039 238.128C453.471 237.52 453.187 236.684 453.187 235.62V228.744H451.927C451.767 228.744 451.631 228.692 451.519 228.588C451.407 228.484 451.351 228.328 451.351 228.12V226.944L453.331 226.62L453.955 223.26C453.995 223.1 454.071 222.976 454.183 222.888C454.295 222.8 454.439 222.756 454.615 222.756H456.151V226.632H459.439V228.744H456.151V235.416C456.151 235.8 456.243 236.1 456.427 236.316C456.619 236.532 456.879 236.64 457.207 236.64C457.391 236.64 457.543 236.62 457.663 236.58C457.791 236.532 457.899 236.484 457.987 236.436C458.083 236.388 458.167 236.344 458.239 236.304C458.311 236.256 458.383 236.232 458.455 236.232C458.543 236.232 458.615 236.256 458.671 236.304C458.727 236.344 458.787 236.408 458.851 236.496L459.739 237.936C459.307 238.296 458.811 238.568 458.251 238.752C457.691 238.936 457.111 239.028 456.511 239.028Z" fill="#262626"/>
<path d="M470.88 224.052V229.188H477.384V231.768H470.88V238.836H467.64V221.484H478.584V224.052H470.88Z" fill="#262626"/>
<path d="M485.136 226.332C486.048 226.332 486.876 226.48 487.62 226.776C488.372 227.072 489.012 227.492 489.54 228.036C490.076 228.58 490.488 229.244 490.776 230.028C491.064 230.812 491.208 231.688 491.208 232.656C491.208 233.632 491.064 234.512 490.776 235.296C490.488 236.08 490.076 236.748 489.54 237.3C489.012 237.852 488.372 238.276 487.62 238.572C486.876 238.868 486.048 239.016 485.136 239.016C484.216 239.016 483.38 238.868 482.628 238.572C481.876 238.276 481.232 237.852 480.696 237.3C480.168 236.748 479.756 236.08 479.46 235.296C479.172 234.512 479.028 233.632 479.028 232.656C479.028 231.688 479.172 230.812 479.46 230.028C479.756 229.244 480.168 228.58 480.696 228.036C481.232 227.492 481.876 227.072 482.628 226.776C483.38 226.48 484.216 226.332 485.136 226.332ZM485.136 236.736C486.16 236.736 486.916 236.392 487.404 235.704C487.9 235.016 488.148 234.008 488.148 232.68C488.148 231.352 487.9 230.34 487.404 229.644C486.916 228.948 486.16 228.6 485.136 228.6C484.096 228.6 483.324 228.952 482.82 229.656C482.324 230.352 482.076 231.36 482.076 232.68C482.076 234 482.324 235.008 482.82 235.704C483.324 236.392 484.096 236.736 485.136 236.736Z" fill="#262626"/>
<path d="M496.265 228.66C496.649 227.924 497.105 227.348 497.633 226.932C498.161 226.508 498.785 226.296 499.505 226.296C500.073 226.296 500.529 226.42 500.873 226.668L500.681 228.888C500.641 229.032 500.581 229.136 500.501 229.2C500.429 229.256 500.329 229.284 500.201 229.284C500.081 229.284 499.901 229.264 499.661 229.224C499.429 229.184 499.201 229.164 498.977 229.164C498.649 229.164 498.357 229.212 498.101 229.308C497.845 229.404 497.613 229.544 497.405 229.728C497.205 229.904 497.025 230.12 496.865 230.376C496.713 230.632 496.569 230.924 496.433 231.252V238.836H493.469V226.524H495.209C495.513 226.524 495.725 226.58 495.845 226.692C495.965 226.796 496.045 226.988 496.085 227.268L496.265 228.66Z" fill="#262626"/>
<path d="M524.759 230.16C524.759 231.432 524.547 232.612 524.123 233.7C523.707 234.78 523.115 235.716 522.347 236.508C521.579 237.3 520.655 237.92 519.575 238.368C518.495 238.808 517.295 239.028 515.975 239.028C514.663 239.028 513.467 238.808 512.387 238.368C511.307 237.92 510.379 237.3 509.603 236.508C508.835 235.716 508.239 234.78 507.815 233.7C507.391 232.612 507.179 231.432 507.179 230.16C507.179 228.888 507.391 227.712 507.815 226.632C508.239 225.544 508.835 224.604 509.603 223.812C510.379 223.02 511.307 222.404 512.387 221.964C513.467 221.516 514.663 221.292 515.975 221.292C516.855 221.292 517.683 221.396 518.459 221.604C519.235 221.804 519.947 222.092 520.595 222.468C521.243 222.836 521.823 223.288 522.335 223.824C522.855 224.352 523.295 224.944 523.655 225.6C524.015 226.256 524.287 226.968 524.471 227.736C524.663 228.504 524.759 229.312 524.759 230.16ZM521.459 230.16C521.459 229.208 521.331 228.356 521.075 227.604C520.819 226.844 520.455 226.2 519.983 225.672C519.511 225.144 518.935 224.74 518.255 224.46C517.583 224.18 516.823 224.04 515.975 224.04C515.127 224.04 514.363 224.18 513.683 224.46C513.011 224.74 512.435 225.144 511.955 225.672C511.483 226.2 511.119 226.844 510.863 227.604C510.607 228.356 510.479 229.208 510.479 230.16C510.479 231.112 510.607 231.968 510.863 232.728C511.119 233.48 511.483 234.12 511.955 234.648C512.435 235.168 513.011 235.568 513.683 235.848C514.363 236.128 515.127 236.268 515.975 236.268C516.823 236.268 517.583 236.128 518.255 235.848C518.935 235.568 519.511 235.168 519.983 234.648C520.455 234.12 520.819 233.48 521.075 232.728C521.331 231.968 521.459 231.112 521.459 230.16Z" fill="#262626"/>
<path d="M539.51 234.744C539.686 234.744 539.842 234.812 539.978 234.948L541.25 236.328C540.546 237.2 539.678 237.868 538.646 238.332C537.622 238.796 536.39 239.028 534.95 239.028C533.662 239.028 532.502 238.808 531.47 238.368C530.446 237.928 529.57 237.316 528.842 236.532C528.114 235.748 527.554 234.812 527.162 233.724C526.778 232.636 526.586 231.448 526.586 230.16C526.586 228.856 526.794 227.664 527.21 226.584C527.626 225.496 528.21 224.56 528.962 223.776C529.722 222.992 530.626 222.384 531.674 221.952C532.722 221.512 533.882 221.292 535.154 221.292C536.418 221.292 537.538 221.5 538.514 221.916C539.498 222.332 540.334 222.876 541.022 223.548L539.942 225.048C539.878 225.144 539.794 225.228 539.69 225.3C539.594 225.372 539.458 225.408 539.282 225.408C539.162 225.408 539.038 225.376 538.91 225.312C538.782 225.24 538.642 225.156 538.49 225.06C538.338 224.956 538.162 224.844 537.962 224.724C537.762 224.604 537.53 224.496 537.266 224.4C537.002 224.296 536.694 224.212 536.342 224.148C535.998 224.076 535.598 224.04 535.142 224.04C534.366 224.04 533.654 224.18 533.006 224.46C532.366 224.732 531.814 225.132 531.35 225.66C530.886 226.18 530.526 226.82 530.27 227.58C530.014 228.332 529.886 229.192 529.886 230.16C529.886 231.136 530.022 232.004 530.294 232.764C530.574 233.524 530.95 234.164 531.422 234.684C531.894 235.204 532.45 235.604 533.09 235.884C533.73 236.156 534.418 236.292 535.154 236.292C535.594 236.292 535.99 236.268 536.342 236.22C536.702 236.172 537.03 236.096 537.326 235.992C537.63 235.888 537.914 235.756 538.178 235.596C538.45 235.428 538.718 235.224 538.982 234.984C539.062 234.912 539.146 234.856 539.234 234.816C539.322 234.768 539.414 234.744 539.51 234.744Z" fill="#262626"/>
<path d="M558.869 230.16C558.869 231.432 558.657 232.6 558.233 233.664C557.809 234.728 557.213 235.644 556.445 236.412C555.677 237.18 554.753 237.776 553.673 238.2C552.593 238.624 551.393 238.836 550.073 238.836H543.461V221.484H550.073C551.393 221.484 552.593 221.7 553.673 222.132C554.753 222.556 555.677 223.152 556.445 223.92C557.213 224.68 557.809 225.592 558.233 226.656C558.657 227.72 558.869 228.888 558.869 230.16ZM555.557 230.16C555.557 229.208 555.429 228.356 555.173 227.604C554.925 226.844 554.561 226.204 554.081 225.684C553.609 225.156 553.033 224.752 552.353 224.472C551.681 224.192 550.921 224.052 550.073 224.052H546.701V236.268H550.073C550.921 236.268 551.681 236.128 552.353 235.848C553.033 235.568 553.609 235.168 554.081 234.648C554.561 234.12 554.925 233.48 555.173 232.728C555.429 231.968 555.557 231.112 555.557 230.16Z" fill="#262626"/>
<path d="M570.959 224.64C570.863 224.808 570.759 224.932 570.647 225.012C570.543 225.084 570.411 225.12 570.251 225.12C570.083 225.12 569.899 225.06 569.699 224.94C569.507 224.812 569.275 224.672 569.003 224.52C568.731 224.368 568.411 224.232 568.043 224.112C567.683 223.984 567.255 223.92 566.759 223.92C566.311 223.92 565.919 223.976 565.583 224.088C565.247 224.192 564.963 224.34 564.731 224.532C564.507 224.724 564.339 224.956 564.227 225.228C564.115 225.492 564.059 225.784 564.059 226.104C564.059 226.512 564.171 226.852 564.395 227.124C564.627 227.396 564.931 227.628 565.307 227.82C565.683 228.012 566.111 228.184 566.591 228.336C567.071 228.488 567.563 228.652 568.067 228.828C568.571 228.996 569.063 229.196 569.543 229.428C570.023 229.652 570.451 229.94 570.827 230.292C571.203 230.636 571.503 231.06 571.727 231.564C571.959 232.068 572.075 232.68 572.075 233.4C572.075 234.184 571.939 234.92 571.667 235.608C571.403 236.288 571.011 236.884 570.491 237.396C569.979 237.9 569.351 238.3 568.607 238.596C567.863 238.884 567.011 239.028 566.051 239.028C565.499 239.028 564.955 238.972 564.419 238.86C563.883 238.756 563.367 238.604 562.871 238.404C562.383 238.204 561.923 237.964 561.491 237.684C561.059 237.404 560.675 237.092 560.339 236.748L561.287 235.2C561.367 235.088 561.471 234.996 561.599 234.924C561.727 234.844 561.863 234.804 562.007 234.804C562.207 234.804 562.423 234.888 562.655 235.056C562.887 235.216 563.163 235.396 563.483 235.596C563.803 235.796 564.175 235.98 564.599 236.148C565.031 236.308 565.547 236.388 566.147 236.388C567.067 236.388 567.779 236.172 568.283 235.74C568.787 235.3 569.039 234.672 569.039 233.856C569.039 233.4 568.923 233.028 568.691 232.74C568.467 232.452 568.167 232.212 567.791 232.02C567.415 231.82 566.987 231.652 566.507 231.516C566.027 231.38 565.539 231.232 565.043 231.072C564.547 230.912 564.059 230.72 563.579 230.496C563.099 230.272 562.671 229.98 562.295 229.62C561.919 229.26 561.615 228.812 561.383 228.276C561.159 227.732 561.047 227.064 561.047 226.272C561.047 225.64 561.171 225.024 561.419 224.424C561.675 223.824 562.043 223.292 562.523 222.828C563.003 222.364 563.595 221.992 564.299 221.712C565.003 221.432 565.811 221.292 566.723 221.292C567.747 221.292 568.691 221.452 569.555 221.772C570.419 222.092 571.155 222.54 571.763 223.116L570.959 224.64Z" fill="#262626"/>
<defs>
<linearGradient id="paint0_linear" x1="711.917" y1="120" x2="554.798" y2="402.485" gradientUnits="userSpaceOnUse">
<stop stop-color="#9BAF00"/>
<stop offset="1" stop-color="#007ACC"/>
</linearGradient>
<linearGradient id="paint1_linear" x1="711.916" y1="209.04" x2="554.799" y2="-73.4452" gradientUnits="userSpaceOnUse">
<stop stop-color="#007ACC"/>
<stop offset="1" stop-color="#9BAF00"/>
</linearGradient>
<linearGradient id="paint2_linear" x1="711.917" y1="120" x2="554.798" y2="402.485" gradientUnits="userSpaceOnUse">
<stop stop-color="#9BAF00"/>
<stop offset="1" stop-color="#007ACC"/>
</linearGradient>
<linearGradient id="paint3_linear" x1="711.916" y1="209.04" x2="554.799" y2="-73.4452" gradientUnits="userSpaceOnUse">
<stop stop-color="#007ACC"/>
<stop offset="1" stop-color="#9BAF00"/>
</linearGradient>
<linearGradient id="paint4_linear" x1="711.917" y1="120" x2="554.798" y2="402.485" gradientUnits="userSpaceOnUse">
<stop stop-color="#9BAF00"/>
<stop offset="1" stop-color="#007ACC"/>
</linearGradient>
<linearGradient id="paint5_linear" x1="711.916" y1="209.04" x2="554.799" y2="-73.4452" gradientUnits="userSpaceOnUse">
<stop stop-color="#007ACC"/>
<stop offset="1" stop-color="#9BAF00"/>
</linearGradient>
<linearGradient id="paint6_linear" x1="711.917" y1="120" x2="554.798" y2="402.485" gradientUnits="userSpaceOnUse">
<stop stop-color="#9BAF00"/>
<stop offset="1" stop-color="#007ACC"/>
</linearGradient>
<linearGradient id="paint7_linear" x1="711.916" y1="209.04" x2="554.799" y2="-73.4452" gradientUnits="userSpaceOnUse">
<stop stop-color="#007ACC"/>
<stop offset="1" stop-color="#9BAF00"/>
</linearGradient>
<linearGradient id="paint8_linear" x1="711.917" y1="120" x2="554.798" y2="402.485" gradientUnits="userSpaceOnUse">
<stop stop-color="#9BAF00"/>
<stop offset="1" stop-color="#007ACC"/>
</linearGradient>
<linearGradient id="paint9_linear" x1="711.916" y1="209.04" x2="554.799" y2="-73.4452" gradientUnits="userSpaceOnUse">
<stop stop-color="#007ACC"/>
<stop offset="1" stop-color="#9BAF00"/>
</linearGradient>
<linearGradient id="paint10_linear" x1="711.917" y1="120" x2="554.798" y2="402.485" gradientUnits="userSpaceOnUse">
<stop stop-color="#9BAF00"/>
<stop offset="1" stop-color="#007ACC"/>
</linearGradient>
<linearGradient id="paint11_linear" x1="711.916" y1="209.04" x2="554.799" y2="-73.4452" gradientUnits="userSpaceOnUse">
<stop stop-color="#007ACC"/>
<stop offset="1" stop-color="#9BAF00"/>
</linearGradient>
<linearGradient id="paint12_linear" x1="711.917" y1="120" x2="554.798" y2="402.485" gradientUnits="userSpaceOnUse">
<stop stop-color="#9BAF00"/>
<stop offset="1" stop-color="#007ACC"/>
</linearGradient>
<linearGradient id="paint13_linear" x1="711.916" y1="209.04" x2="554.799" y2="-73.4452" gradientUnits="userSpaceOnUse">
<stop stop-color="#007ACC"/>
<stop offset="1" stop-color="#9BAF00"/>
</linearGradient>
<linearGradient id="paint14_linear" x1="711.917" y1="120" x2="554.798" y2="402.485" gradientUnits="userSpaceOnUse">
<stop stop-color="#9BAF00"/>
<stop offset="1" stop-color="#007ACC"/>
</linearGradient>
<linearGradient id="paint15_linear" x1="711.916" y1="209.04" x2="554.799" y2="-73.4452" gradientUnits="userSpaceOnUse">
<stop stop-color="#007ACC"/>
<stop offset="1" stop-color="#9BAF00"/>
</linearGradient>
<linearGradient id="paint16_linear" x1="711.917" y1="120" x2="554.798" y2="402.485" gradientUnits="userSpaceOnUse">
<stop stop-color="#9BAF00"/>
<stop offset="1" stop-color="#007ACC"/>
</linearGradient>
<linearGradient id="paint17_linear" x1="711.916" y1="209.04" x2="554.799" y2="-73.4452" gradientUnits="userSpaceOnUse">
<stop stop-color="#007ACC"/>
<stop offset="1" stop-color="#9BAF00"/>
</linearGradient>
</defs>
</svg>
